<svg xmlns="http://www.w3.org/2000/svg" viewBox="0 0 300 300">
  <g transform="translate(27, 11)">
    <path fill="#d79342" fill-rule="evenodd" d="M218.44,81.45c-31.77-18.34-63.55-36.68-95.32-55.02L27.82,81.45l34.61,19.99,60.69-35.04,26.09,15.06-60.7,35.04,60.69,35.04-13.9,8.03c-7.72,4.46-16.61,4.45-24.33,0-32.93-19.02-65.87-38.03-98.8-57.04C4.45,98.07,0,90.38,0,81.45s4.44-16.61,12.17-21.07L110.97,3.34c7.72-4.46,16.61-4.46,24.33,0,32.93,19.01,65.86,38.03,98.79,57.04,7.72,4.46,12.16,12.16,12.16,21.07s-4.44,16.62-12.16,21.08l-50.27,29.03-26.09-15.06,60.7-35.05Z"/>
    <path fill="#113740" fill-rule="evenodd" d="M123.13,248.3l97.93-56.53,25.2-14.54v16.05c0,8.92-4.44,16.62-12.17,21.08l-14.52,8.38-9.46,5.47-74.81,43.18c-7.72,4.46-16.61,4.46-24.33,0-28.09-16.22-56.2-32.42-84.28-48.65l-14.52-8.39c-7.72-4.46-12.17-12.15-12.17-21.07v-16.07l2.61,1.51c24,13.86,48,27.71,71.99,41.57l48.53,28.02Z"/>
    <path fill="#2b7474" fill-rule="evenodd" d="M123.13,192.39l97.93-56.53,25.2-14.54v16.05c0,8.92-4.44,16.62-12.17,21.08l-14.52,8.38-9.46,5.47-74.81,43.18c-7.72,4.46-16.61,4.46-24.33,0-32.93-19.01-65.87-38.02-98.8-57.03-7.73-4.46-12.17-12.16-12.17-21.08v-16.07l2.61,1.51c24,13.86,48,27.71,71.99,41.57l48.53,28.02Z"/>
  </g>
</svg>
