<?xml version="1.0" encoding="UTF-8"?>
<svg id="Layer_1" data-name="Layer 1" xmlns="http://www.w3.org/2000/svg" viewBox="0 0 1200 274.73">
  <defs>
    <style>
      .cls-1 {
        fill-rule: evenodd;
      }
    </style>
  </defs>
  <g>
    <path class="cls-1" d="M218.44,81.45c-31.77-18.34-63.55-36.68-95.32-55.02L27.82,81.45l34.61,19.99,60.69-35.04,26.09,15.06-60.7,35.04,60.69,35.04-13.9,8.03c-7.72,4.46-16.61,4.45-24.33,0-32.93-19.02-65.87-38.03-98.8-57.04C4.45,98.07,0,90.38,0,81.45s4.44-16.61,12.17-21.07L110.97,3.34c7.72-4.46,16.61-4.46,24.33,0,32.93,19.01,65.86,38.03,98.79,57.04,7.72,4.46,12.16,12.16,12.16,21.07s-4.44,16.62-12.16,21.08l-50.27,29.03-26.09-15.06,60.7-35.05Z"/>
    <path class="cls-1" d="M123.13,248.3l97.93-56.53,25.2-14.54v16.05c0,8.92-4.44,16.62-12.17,21.08l-14.52,8.38-9.46,5.47-74.81,43.18c-7.72,4.46-16.61,4.46-24.33,0-28.09-16.22-56.2-32.42-84.28-48.65l-14.52-8.39c-7.72-4.46-12.17-12.15-12.17-21.07v-16.07l2.61,1.51c24,13.86,48,27.71,71.99,41.57l48.53,28.02Z"/>
    <path class="cls-1" d="M123.13,192.39l97.93-56.53,25.2-14.54v16.05c0,8.92-4.44,16.62-12.17,21.08l-14.52,8.38-9.46,5.47-74.81,43.18c-7.72,4.46-16.61,4.46-24.33,0-32.93-19.01-65.87-38.02-98.8-57.03-7.73-4.46-12.17-12.16-12.17-21.08v-16.07l2.61,1.51c24,13.86,48,27.71,71.99,41.57l48.53,28.02Z"/>
  </g>
  <g>
    <g>
      <path d="M301.55,126.71V41.41c0-5.05,4.09-9.14,9.14-9.14h59.39v21.83h-43.28v18.28h35.78v21.31h-35.78v33.01h-25.25Z"/>
      <path d="M425.61,30.69c27.36,0,46.3,20.39,46.3,48.8s-18.94,48.8-46.3,48.8-46.17-20.39-46.17-48.8,18.94-48.8,46.17-48.8ZM425.61,53.05c-11.97,0-20.26,10-20.26,26.44s8.29,26.44,20.26,26.44,20.39-10,20.39-26.44-8.29-26.44-20.39-26.44Z"/>
      <path d="M485.16,88.17v-55.9h25.65v55.11c0,12.76,5.92,18.41,15.26,18.41s15.26-5.66,15.26-18.41v-55.11h25.78v55.9c0,26.04-15.92,39.99-41.04,39.99s-40.91-13.94-40.91-39.99Z"/>
      <path d="M670.09,126.71h-22.36l-37.62-54.72v54.72h-24.6V32.27h25.25l34.59,51.43v-51.43h24.73v94.44Z"/>
      <path d="M689.55,32.27h34.99c30.52,0,48.8,18.41,48.8,47.22s-18.28,47.22-48.8,47.22h-34.99V32.27ZM724.54,105c15.26,0,23.28-10.13,23.28-25.52s-8.02-25.52-23.28-25.52h-9.87v51.03h9.87Z"/>
      <path d="M840.02,32.27l34.07,94.44h-26.18l-6.05-17.1h-34.2l-5.92,17.1h-25.52l34.07-94.44h29.73ZM814.89,88.96h19.73l-9.87-28.15-9.86,28.15Z"/>
      <path d="M923.27,54.1v72.61h-25.78V54.1h-27.75v-21.83h81.29v21.83h-27.75Z"/>
      <path d="M991.92,126.71h-25.78V32.27h25.78v94.44Z"/>
      <path d="M1053.61,30.69c27.36,0,46.3,20.39,46.3,48.8s-18.94,48.8-46.3,48.8-46.17-20.39-46.17-48.8,18.94-48.8,46.17-48.8ZM1053.61,53.05c-11.97,0-20.26,10-20.26,26.44s8.29,26.44,20.26,26.44,20.39-10,20.39-26.44-8.29-26.44-20.39-26.44Z"/>
      <path d="M1200,126.71h-22.36l-37.62-54.72v54.72h-24.6V32.27h25.25l34.59,51.43v-51.43h24.73v94.44Z"/>
    </g>
    <g>
      <path d="M318.38,242.59h-16.83v-94.42h37.74c21.04,0,34.19,9.86,34.19,28.93s-13.15,28.93-34.19,28.93h-20.91v36.56ZM338.37,191.57c12.1,0,18.54-5.26,18.54-14.47s-6.44-14.47-18.54-14.47h-19.99v28.93h19.99Z"/>
      <path d="M412.02,242.59h-16.83v-94.42h37.74c21.04,0,34.19,9.86,34.19,28.93,0,14.86-8.15,24.33-21.96,27.62l24.33,37.87h-19.2l-23.01-36.56h-15.26v36.56ZM432.01,191.57c12.1,0,18.54-5.26,18.54-14.47s-6.44-14.47-18.54-14.47h-19.99v28.93h19.99Z"/>
      <path d="M530.65,146.72c25.51,0,43.92,19.99,43.92,48.66s-18.41,48.66-43.92,48.66-43.92-19.99-43.92-48.66,18.41-48.66,43.92-48.66ZM530.65,161.58c-15.91,0-27.09,13.28-27.09,33.8s11.18,33.8,27.09,33.8,27.09-13.28,27.09-33.8-11.18-33.8-27.09-33.8Z"/>
      <path d="M588.12,227.47c4.47.79,6.44,1.05,10.52,1.05,10.13,0,15.25-3.55,15.25-14.07v-66.28h16.83v67.6c0,18.81-10.92,27.75-30.12,27.75-4.6,0-8.02-.26-12.49-1.05v-14.99Z"/>
      <path d="M721.6,148.17v14.73h-47.34v23.67h39.85v14.73h-39.85v26.56h47.34v14.73h-63.91v-94.42h63.91Z"/>
      <path d="M782.89,229.18c11.05,0,19.07-6.71,21.96-17.75l15.78,5.39c-5.52,16.7-18.68,27.22-37.74,27.22-25.12,0-43.4-19.99-43.4-48.66s18.28-48.66,43.4-48.66c19.07,0,32.22,10.52,37.74,27.22l-15.78,5.39c-2.89-11.05-10.92-17.75-21.96-17.75-15.52,0-26.57,13.41-26.57,33.8s11.05,33.8,26.57,33.8Z"/>
      <path d="M881.53,162.9v79.7h-16.83v-79.7h-30.38v-14.73h77.59v14.73h-30.38Z"/>
      <path d="M933.35,213.53c6.58,10.26,16.44,16.18,27.22,16.18s18.67-4.86,18.67-13.94c0-9.6-9.86-10.92-23.93-14.33-14.2-3.42-29.46-7.63-29.46-26.04s14.99-28.67,34.06-28.67c16.18,0,28.8,7.63,35.11,17.49l-12.36,10.65c-5.26-8.15-12.23-13.81-23.28-13.81-10.13,0-17.1,5.13-17.1,12.62,0,8.29,7.23,9.99,19.99,12.89,15.25,3.42,33.54,6.97,33.54,27.49,0,18.54-16.31,29.98-35.77,29.98-16.18,0-32.22-7.76-39.59-19.86l12.89-10.65Z"/>
    </g>
  </g>
</svg>